<?xml version="1.0" encoding="UTF-8"?><svg xmlns="http://www.w3.org/2000/svg" xmlns:xlink="http://www.w3.org/1999/xlink" height="125.0" preserveAspectRatio="xMidYMid meet" version="1.0" viewBox="-1.0 0.0 93.1 125.0" width="93.1" zoomAndPan="magnify"><g id="change1_1"><path d="M85.91,79H76.9c-0.546-2.481-2.377-10.091-5.009-13.6c-2.536-3.381-9.49-6.635-12.27-7.841 c2.95-4.399,7.47-13.621,7.47-20.559c0-2.469-1-5.249-2.952-8.26c0.2-1.306,0.664-5.653-1.118-10.11 C60.929,13.379,49.612,0,42.091,0c-7.517,0-19.893,11.532-22.937,19.649c-1.976,5.27-0.666,9.185-0.135,10.417 c-1.937,4.331-2.928,8.012-2.928,10.934c0,4.174,5.467,13.268,7.454,16.436c-2.546,0.888-8.276,3.393-12.268,8.983 C6.229,73.486-0.977,109.761,0.11,115.196c1.059,5.296,6.14,9.412,6.356,9.584C6.643,124.923,6.863,125,7.091,125h61.99 c0.552,0,1-0.448,1-1v-2.334c0.318-0.003,0.636-0.041,0.949-0.12l2.766-0.74c0.414,0.091,0.833,0.15,1.253,0.15 c0.893,0,1.782-0.206,2.6-0.611l8.741-4.376c3.217-0.241,5.701-2.888,5.701-6.149V85.18C92.091,81.772,89.318,79,85.91,79z M55.697,114.74c-0.013-0.046-0.028-0.09-0.046-0.133l-1.046-3.865c-0.023-0.082-0.034-0.17-0.034-0.272 c0-0.48,0.321-0.896,0.781-1.009c0.558-0.14,1.121,0.203,1.259,0.76c0,0.001,0.001,0.001,0.001,0.001c0,0.001,0,0.001,0,0.002 l1.109,4.406c0.304,1.229,0.938,2.351,1.833,3.247l0.455,0.455l-1.511,0.251c-0.953,0.161-1.876-0.426-2.131-1.353L55.697,114.74z M60.967,116.463c-0.638-0.638-1.089-1.438-1.307-2.317l-1.109-4.407c-0.066-0.268-0.023-0.546,0.121-0.785 c0.144-0.239,0.371-0.407,0.639-0.474c0.028-0.007,0.064-0.019,0.1-0.033c0.25-0.047,0.504,0,0.725,0.134 c0.239,0.144,0.407,0.371,0.474,0.639c0,0.001,0.001,0.001,0.001,0.002c0,0,0,0.001,0,0.001l1.109,4.417 c0.302,1.22,0.936,2.339,1.833,3.237l2.583,2.583l-0.478,0.12c-0.775,0.196-1.611-0.038-2.18-0.606L60.967,116.463z M70.291,66.6 c2.238,2.984,3.934,9.678,4.557,12.4h-7.37l1.561-4.684c0.175-0.524-0.108-1.09-0.632-1.265c-0.526-0.177-1.091,0.109-1.265,0.632 L65.37,79H47.271c-1.613,0-3.079,0.626-4.18,1.641V79.97c0-0.691-0.055-1.381-0.162-2.046c-0.494-3.119-0.797-5.578-0.831-6.711 c0.35,0.04,0.72,0.066,1.103,0.066c0.72,0,1.479-0.088,2.207-0.331c2.653-0.885,7.486-5.451,10.863-9.207 c-0.697,2.476-1.902,5.567-3.887,7.551C48.758,72.918,45.121,73,45.091,73c-0.552,0-1,0.448-1,1s0.448,1,1,1 c0.18,0,4.463-0.049,8.707-4.293c3.221-3.221,4.582-8.661,5.074-11.29C61.529,60.577,68.07,63.64,70.291,66.6z M38.207,38.05 c-1.425,0.607-2.56,1.742-3.167,3.167c-0.607-1.425-1.742-2.56-3.167-3.167c1.425-0.607,2.56-1.742,3.167-3.167 C35.648,36.308,36.782,37.443,38.207,38.05z M2.071,114.804c-0.981-4.906,6.03-40.498,10.833-47.223 c3.608-5.051,8.917-7.398,11.25-8.232c0.142,1.78,0.603,4.955,2.104,7.206c2.189,3.284,6.411,4.371,6.589,4.416 c0.082,0.021,0.163,0.03,0.243,0.03c0.447,0,0.854-0.302,0.968-0.756c0.135-0.535-0.19-1.078-0.725-1.214 c-0.036-0.009-3.658-0.954-5.412-3.585c-0.823-1.235-1.274-2.87-1.524-4.295c2.238,2.357,4.915,4.509,5.067,4.631 C31.651,65.928,31.871,66,32.09,66c0.293,0,0.584-0.128,0.781-0.375c0.345-0.431,0.275-1.061-0.156-1.405 c-0.049-0.039-4.876-3.916-6.783-6.751c-0.005-0.007-0.005-0.016-0.009-0.023C23.192,53.349,18.091,44.319,18.091,41 c0-2.699,1.02-6.352,2.95-10.566c2.198-4.833,4.855-8.839,4.882-8.879c0.306-0.459,0.182-1.081-0.277-1.387 c-0.46-0.308-1.08-0.183-1.387,0.277c-0.095,0.142-2.008,3.029-3.966,6.926c-0.303-1.617-0.378-4.052,0.735-7.02 C24.05,12.291,35.861,2,42.091,2c6.377,0,17.134,12.505,19.071,17.372c1.006,2.516,1.201,5.035,1.169,6.829 c-2.245-2.866-4.462-4.847-4.577-4.949c-0.413-0.366-1.045-0.328-1.412,0.084c-0.367,0.413-0.329,1.045,0.084,1.412 c0.033,0.029,3.312,2.957,5.823,6.748c1.858,2.777,2.841,5.372,2.841,7.504c0,6.439-4.612,16.149-7.8,20.4 c-0.006,0.008-0.007,0.018-0.012,0.026c-3.212,4.262-9.972,10.781-12.504,11.625c-0.701,0.234-1.468,0.252-2.172,0.194 c0.121-0.263,0.253-0.531,0.39-0.807c0.54-1.083,1.098-2.203,1.098-3.438c0-1.533-0.517-3.53-0.827-4.587 C46.529,58.166,61.091,47.711,61.091,40c0-13.419-11.943-17-19-17s-19,3.581-19,17c0,8.013,15.72,18.985,18.152,20.635 c0.244,0.794,0.848,2.911,0.848,4.365c0,0.764-0.432,1.629-0.888,2.545c-0.215,0.432-0.43,0.873-0.615,1.321 c-1.178-0.338-2.043-0.757-2.054-0.763c-0.493-0.241-1.094-0.041-1.339,0.453c-0.245,0.495-0.043,1.094,0.451,1.339 c0.05,0.025,1.065,0.52,2.459,0.913c-0.003,0.064-0.014,0.129-0.014,0.192c0,1.558,0.541,5.203,0.863,7.239 c0.091,0.564,0.137,1.146,0.137,1.731v5.21v24.64V123h-7.28l0.183-1.494c0.191-1.638,0.099-3.39-0.261-4.939l-0.67-2.8 c-0.128-0.536-0.666-0.866-1.206-0.74c-0.537,0.128-0.868,0.668-0.74,1.206l0.668,2.793c0.308,1.324,0.386,2.833,0.222,4.242 L31.795,123h-2.497c0.301-1.636,0.792-4.528,0.792-6c0-2.21-1.061-4.357-1.105-4.447c-0.247-0.493-0.848-0.692-1.34-0.447 c-0.494,0.246-0.695,0.846-0.45,1.34c0.006,0.011,0.358,0.732,0.619,1.695c-2.055-1.131-5.429-2.928-7.653-3.81 c0.234-2.382,0.929-9.609,0.929-11.332c0-1.236-0.562-2.36-1.105-3.447c-0.46-0.92-0.895-1.789-0.895-2.553 c0-0.563,0.218-1.775,0.448-3.058c0.559-3.116,1.255-6.993,0.5-9.258c-1.063-3.187-3.153-5.302-3.242-5.391 c-0.39-0.391-1.021-0.39-1.412-0.001c-0.391,0.39-0.392,1.022-0.003,1.414c0.019,0.019,1.852,1.887,2.76,4.611 c0.594,1.781-0.08,5.533-0.572,8.272c-0.268,1.492-0.479,2.671-0.479,3.412c0,1.236,0.562,2.36,1.105,3.447 c0.46,0.92,0.895,1.789,0.895,2.553c0,1.54-0.628,8.147-0.886,10.795c-1.753-0.222-3.321,0.224-3.401,0.247 c-0.528,0.159-0.827,0.714-0.67,1.242c0.157,0.529,0.712,0.831,1.242,0.674c0.018-0.005,1.836-0.528,3.399-0.01 c2.412,0.804,7.636,3.691,9.293,4.622c-0.104,1.56-0.559,4.13-0.802,5.43H7.457C6.457,122.126,2.861,118.751,2.071,114.804z M43.091,123v-8.641c1.102,1.015,2.567,1.641,4.18,1.641h6.694l0.472,1.755c0.47,1.711,2.018,2.854,3.745,2.854 c0.212,0,0.427-0.017,0.643-0.053l2.923-0.486l0.317,0.317c0.814,0.814,1.922,1.259,3.05,1.259c0.344,0,0.69-0.042,1.031-0.127 l1.788-0.449c0.052,0.031,0.095,0.069,0.149,0.098V123H43.091z M70.528,119.61c-0.362,0.092-0.77,0.076-1.123-0.036 c-0.254-0.087-0.491-0.214-0.689-0.372c-0.056-0.044-0.099-0.089-0.149-0.14l-3.6-3.6c-0.64-0.64-1.092-1.437-1.307-2.307 l-1.109-4.417c-0.138-0.556,0.203-1.121,0.772-1.262l0.181-0.047c0.519-0.131,1.065,0.167,1.236,0.673l0.313,0.94 c0.002,0.007,0.002,0.014,0.004,0.021c0.001,0.004,0.005,0.007,0.006,0.012l1.078,3.241l0.39,1.169 c0.448,1.344,1.212,2.582,2.211,3.581l2.18,2.18c0.071,0.071,0.15,0.13,0.224,0.197L70.528,119.61z M76.757,118.554 c-0.849,0.42-1.818,0.515-2.728,0.262c-0.65-0.181-1.219-0.512-1.691-0.983l-2.18-2.18c-0.78-0.781-1.378-1.749-1.728-2.799 l-0.39-1.17l-1.081-3.251c-0.131-0.431-0.08-0.882,0.149-1.273c0.233-0.398,0.61-0.667,1.036-0.755 c0.758-0.132,1.538,0.263,1.818,0.966l2.321,5.812c0.677,1.685,2.352,2.817,4.168,2.817h5.409L76.757,118.554z" fill="inherit"/></g></svg>